<svg width="23" height="20" viewBox="0 0 23 20" fill="none" xmlns="http://www.w3.org/2000/svg">
<path d="M22.9065 3.95118L20.084 3.10652C17.4257 2.31217 14.7668 1.51958 12.1074 0.728765C12.0256 0.706317 11.9375 0.706317 11.8558 0.728765C8.28071 1.79011 4.70617 2.85343 1.13215 3.91874C1.07821 3.92624 1.02991 3.95123 0.997582 3.98835C0.965253 4.02547 0.95147 4.07177 0.959187 4.11733C0.967049 4.89447 0.967049 5.67161 0.959187 6.44875C0.952429 6.48472 0.962383 6.52149 0.986977 6.55145C1.01157 6.5814 1.04892 6.60223 1.09127 6.60961C4.67734 7.67492 8.26263 8.74089 11.8471 9.80753C11.9253 9.82897 12.0095 9.82897 12.0877 9.80753C15.6449 8.74839 19.2017 7.68772 22.7579 6.62549C22.8077 6.61835 22.8521 6.59495 22.8816 6.56037C22.911 6.52579 22.9231 6.48282 22.9151 6.44081C22.9041 5.61204 22.9065 4.78724 22.9065 3.95118ZM5.22505 5.26649C5.30367 5.24068 5.33905 5.22611 5.38229 5.2142C7.53121 4.57298 9.68013 3.93309 11.829 3.29452C11.8942 3.27676 11.9644 3.27676 12.0295 3.29452C14.1858 3.93662 16.3405 4.58049 18.4936 5.22612C18.5305 5.23671 18.5651 5.24994 18.6217 5.27046L18.4818 5.31813C16.3376 5.9589 14.1923 6.59879 12.046 7.2378C11.9715 7.25618 11.892 7.25433 11.8188 7.23251C10.0892 6.72015 8.36195 6.20559 6.63705 5.68882L5.22505 5.26649Z" fill="#3C0CA4"/>
<path d="M22.9366 8.61133C22.7911 8.65369 22.6583 8.69076 22.5262 8.73114L12.1068 11.8423C12.0249 11.8664 11.936 11.868 11.8529 11.847C8.28462 10.7878 4.71742 9.72473 1.15126 8.65765C1.1033 8.64309 1.05299 8.6325 0.994027 8.61793C0.994027 8.65236 0.986949 8.67885 0.986949 8.70533C0.986949 9.49438 0.986949 10.2834 0.986949 11.0731C0.980559 11.1074 0.990406 11.1424 1.01437 11.1707C1.03834 11.1989 1.07451 11.2181 1.1151 11.2241C4.70117 12.2898 8.28725 13.3567 11.8733 14.4246C11.9468 14.4459 12.0263 14.447 12.1005 14.4279C15.6688 13.3653 19.236 12.3013 22.8022 11.236C22.8449 11.2301 22.8833 11.2105 22.9091 11.1812C22.9349 11.1519 22.9462 11.1153 22.9405 11.0791C22.935 10.294 22.9405 9.50893 22.9405 8.72318L22.9366 8.61133Z" fill="#3C0CA4"/>
<path d="M22.9366 13.2378C22.7912 13.2795 22.6583 13.3172 22.5262 13.3576L12.1069 16.4688C12.025 16.493 11.936 16.4946 11.8529 16.4734C8.28468 15.4143 4.71748 14.3512 1.15132 13.2841C1.10337 13.2696 1.05305 13.259 0.994087 13.2444C0.994087 13.2788 0.987009 13.3053 0.987009 13.3318C0.987009 14.1208 0.987009 14.9099 0.987009 15.6996C0.980394 15.734 0.99014 15.7692 1.01413 15.7976C1.03811 15.8259 1.07441 15.8452 1.11516 15.8512C4.70123 16.9169 8.2873 17.9836 11.8734 19.0511C11.9468 19.0723 12.0263 19.0735 12.1006 19.0544C15.6688 17.9918 19.236 16.9278 22.8022 15.8625C22.9013 15.8327 22.9414 15.7963 22.9406 15.7056C22.9351 14.9205 22.9406 14.1354 22.9406 13.3497L22.9366 13.2378Z" fill="#3C0CA4"/>
</svg>
